<?xml version="1.0" encoding="utf-8"?>
<!-- Generator: Adobe Illustrator 18.0.0, SVG Export Plug-In . SVG Version: 6.00 Build 0)  -->
<!DOCTYPE svg PUBLIC "-//W3C//DTD SVG 1.1//EN" "http://www.w3.org/Graphics/SVG/1.1/DTD/svg11.dtd">
<svg version="1.1" id="Layer_1" xmlns="http://www.w3.org/2000/svg" xmlns:xlink="http://www.w3.org/1999/xlink" x="0px" y="0px"
	 viewBox="0 0 544.9 164.1" style="enable-background:new 0 0 544.9 164.1;" xml:space="preserve">
<style type="text/css">
	.st0{fill:#FFFFFF;}
	.st1{fill-rule:evenodd;clip-rule:evenodd;fill:#FFFFFF;}
</style>
<g>
	<path class="st0" d="M184.3,129.6c19.9,0,33.9-10.3,33.9-28.6v-0.3c0-16.1-10.6-22.8-29.3-27.7c-16-4.1-19.9-6.1-19.9-12.1v-0.3
		c0-4.5,4.1-8,11.9-8c7.8,0,15.8,3.4,24,9.1l10.6-15.3c-9.4-7.5-20.8-11.7-34.3-11.7c-18.9,0-32.3,11.1-32.3,27.8v0.3
		c0,18.3,12,23.5,30.6,28.2c15.4,4,18.6,6.6,18.6,11.7v0.3c0,5.4-5,8.7-13.3,8.7c-10.6,0-19.3-4.4-27.6-11.2l-12,14.4
		C156.2,124.7,170.4,129.6,184.3,129.6L184.3,129.6z"/>
	<path class="st0" d="M231.1,128.2H275c20.8,0,34.6-8.4,34.6-25.3v-0.3c0-12.4-6.6-18.6-17.3-22.7c6.6-3.7,12.1-9.5,12.1-19.9v-0.3
		c0-6.3-2.1-11.5-6.3-15.7c-5.3-5.3-13.6-8.2-24.1-8.2h-42.9V128.2L231.1,128.2z M284.3,63.5c0,6.9-5.7,9.8-14.6,9.8h-18.7V53.7
		h20.1c8.6,0,13.3,3.4,13.3,9.5V63.5L284.3,63.5z M289.4,100.1v0.3c0,6.9-5.4,10-14.4,10h-24.1V90.1h23.5
		C284.8,90.1,289.4,93.9,289.4,100.1L289.4,100.1z"/>
	<polygon class="st0" points="423.2,128.2 443.5,128.2 443.5,35.9 423.2,35.9 423.2,128.2 	"/>
	<path class="st0" d="M507,129.8c17.8,0,28.4-6.3,37.9-16.5l-12.9-13.1c-7.3,6.6-13.7,10.8-24.3,10.8c-15.8,0-26.8-13.2-26.8-29
		v-0.3c0-15.8,11.2-28.8,26.8-28.8c9.2,0,16.5,4,23.6,10.4l12.9-14.9c-8.6-8.4-19-14.2-36.4-14.2c-28.4,0-48.2,21.5-48.2,47.8v0.3
		C459.6,108.8,479.8,129.8,507,129.8L507,129.8z"/>
	<polygon class="st0" points="313,128.2 333.8,128.2 361.7,59.6 374,89.6 360.9,89.6 353.3,107.5 381.2,107.5 389.7,128.2 
		410.9,128.2 371.4,35.2 352.6,35.2 313,128.2 	"/>
	<path class="st0" d="M88.3,34.9L88.3,34.9l-0.2-0.1c-13.1-8.7-28.4-11.2-42.6-8.3C31.3,29.3,18.2,37.6,9.6,50.5l0,0l-0.1,0.2
		C0.8,63.8-1.7,79.1,1.1,93.3c2.9,14.2,11.2,27.4,24.3,36l0.1,0l0,0c13,8.6,28.4,11.2,42.6,8.3c14.2-2.9,27.4-11.2,36-24.3l0-0.1v0
		c8.6-13,11.2-28.4,8.3-42.6C109.5,56.6,101.3,43.5,88.3,34.9L88.3,34.9z M87.2,36.2c25.3,16.8,32.2,50.9,15.4,76.2
		c-16.8,25.3-50.9,32.2-76.2,15.4C1.1,111.1-5.9,77,10.9,51.7C27.7,26.3,61.9,19.4,87.2,36.2L87.2,36.2z"/>
	<path class="st1" d="M69.1,136.1c-0.9-1.4-2.1-2.8-2.7-3.6c-1.1-1.5-2.8-1.1-2.3-1.6c0.8-0.9-1.5-1.6-0.7-1.6
		c4.2,0.1-0.2-5.2-1.1-6.7c-1-1.7-0.5-1.8-0.5-3.3c0-0.6-2.2-1.8-2.9-2.4c-1.6-1.5-0.3-1.7-3-2.2c-1-0.2,1-1.2-0.4-1.8
		c-1.8-0.7-2.1,0.5-4.2-1.1c-1.2-0.9-3-2-2.3-3.3c0.9-1.8,2.4-1.8,0.3-3.7c-1.9-2.3,1.2-2.6,2.2-4.3c2.3-3.9-8.3,1.6-5.5-5.2
		c0.4-1.1,3.4-4.8,4.1-5c3.4-0.9,3.4,0.9,4.8,2c1.1,0.8,2.5-1,4.1,2.7c0.5,1-2,4.5-0.4,4.9c1.7-0.5,1.9-2.7,2.5-3.9
		c1.1-2.7,5.8-0.2,7-2.2c0.9-1.5,0.9-1,1.5-1c-4.2-4.5-8.7-8.3-12.7-10.6c0,0-7.7-3.3-16-8c0.1,1.6,0.1,3-0.6,5.7
		c-0.5,1.7-1.2,1.8-0.9,3.7c0.3,1.7-0.5,4.6,0.9,4.5l1.4-9.1l0.4,0c0.7,0.3-1,11.2-1.3,12.9c-1,5.7,2.9,7,4,10.3
		c0.8,1.8,2,3.4,2,5.4c0.7,2.1,0.4,2,2.6,3.9c3.9,3.2-4,3.6-5.1,5.1c-0.9,1.2-1.4,7.8-0.7,9.5c1,2.4,1.7,2.8-0.1,4.8
		c-1.3,1.6-3,2.7-4.5,3.7C48.9,137.9,59.3,138.3,69.1,136.1L69.1,136.1z M75.2,91.5c0.4-0.5,1-0.9,2.6-0.1c1.4,0.6-0.8,1.9,1.5,2.3
		c1.7,0.3,2.2,1.3,3.9,0.7C83.6,93,84,93,82.9,93c-1.7,0-0.6-0.4-0.4-1.4c-0.8-0.1-1,0-1.3-0.3c0.6-0.9,1.1-1.3,1.3-2l-3.6-1.5
		c1.4-0.3,5.4-0.5,4.4,1.6c-0.9,1.9,4.6,0.5,4.9,1.8l-3.4,1.9l3.3,3.1c1.9-1.5-1.1-3.6,0.5-4.6c2.1-1.3,1.8-2.2,1.2-4.4
		c-0.9-2.9-0.5-2.2-0.3-5.3c0.2-3-2.7,0-3.3-1.9c-0.4-1.3,1.2-0.6-0.7-4.5c-1-2-2.1-3.2-4.5-1.2c-1.7,1.4-0.2,4-2.3,3.5
		c-3.6-0.9-0.8,2.2-3.5,2.1c-0.9-0.8,1.3-3.1-1.3-6c-1.1-1.2-3.5-5.1-3-6.9c2.2-1.6,8-1.2,7.8,0.3c-0.2,1.4,1.2,1.4,2.2,2.8
		c1.2,1.7,1.2-0.8,0.4-2c-1.1-1.8-1.8-2.4,0.5-1c2.4,1.5,1.8-1.1,3.1-1.1c0.9,0,3,1.1,2.1,2.5c-1.2,2-1.1,1,1.3,2
		c1.9,0.8-1.8,0.6-2.8,0.3c-2.6-0.8-2,0.8-0.4,1.9c1.1,0.8,4.1,7.5,5.7,6.1c0.6-0.5-0.2-4.1,1-2.5c0.1,0.1,3.4,3.6,3,1.1
		c-0.2-1.5-1.3-2.3-1.5-4.2c-0.2-2.2-0.2-2.7-1.5-4.4c-2.2-2.9-1.5-6.3-6.5-7c-1.8-0.3-0.8-1.1-1.6-2.4c-0.7-1.1-3.4-0.5-2.8,1.5
		c0.1,0.2,2.2,3.5,0.2,3.2c-1.1-0.2-1.4-2-1.7-2.9c-0.3-0.9-0.1-3.9-1.3-2.9c-1.3,1.2-2.3,3.3-2.7,1.2c-0.5-2.5,0.4-1.9-1.6-1.3
		c-1.3,0.4-3.7-1.8-3.7-2.7c0-0.6,3.1,1,3.1-0.1c0-1.2-0.5-2.9-0.4-4.1c0.4-3.5,3.7-1.5-1.8-5.3c-1.4-0.9-1.4-2.7-2.7-4
		c-0.5-0.5-3.4-1.9-4.3-0.7l3.4,2.1l-0.4,1.4l1.5,0.5c0.2,1.3-0.8,1.4,1,2.3c0.9,0.5,1.6,1,2.1,1.9l-1.2,2.3l0.3-2
		c-1.5-1.8-3.1-1.1-3.8-4.4c-0.2-1.1-3.4-3.4-4.6-3.9l-2.5,1c0,0.1,1.1,2.2,1.3,2.4c1.8,1.4,1.9,0.4,2.8,0.6L64,49.2
		c-0.8,0.1-2.4-3.1-3.1-3.7c-1.2-1.1-2.2-1.6-3.3-2.8c-2.2-2.3-5.4-2.4-7.1-5c-2-2.9-5.6-5-7.6-7.6c-0.5-0.6-0.6-1-0.8-1.3
		c-2,0.5-3.9,1.2-5.8,2l1.4-0.2c-2.7,1.7-4.5,3.7-5.7,6c0.3,0.5,0.5,0.9,0.1,1.1c-0.2,0.1-0.4,0.1-0.6,0.1c-0.2,0.4-0.3,0.9-0.5,1.4
		c0.8,0.1,1.3,0.2,2.5,1.2c1.6,1.4,1.6,0.1,2.7-1c1.3-1.4,1.3,0.7,2,1c1.8,0.7,2.2-0.4,3.7,1.8c2.1,2.9,3.7,4.2,3.3,8.7
		c-0.1,0.7-1.5,4.8-0.1,3.9c0.7-0.5,1.6-2.8,1.2,0.3c-0.2,2-1,2.7-0.5,4.8c1,3.6-3,4.6-4.5,8.7c4.9,5.9,10.6,11,15.5,13.8
		C56.8,82.1,66,86,75.2,91.5L75.2,91.5z M110.2,67.6c1.9,7.1,2.4,14.5,1.4,21.9c-0.9-0.5-0.4-0.4-2.6-0.3c-2,0.1-2.4-3.5-7.6,0.2
		c-1.9,1.3-1.7-0.8-2.4-1.5c-0.6-0.6-1.1-2.6-1-3.6c0.1-0.8,0.5-0.9,0.5-1.6c-0.1-0.8-0.4-1,0-1.9c0.5-1.1,1.1-1,1.4-1.5
		c0.3-0.6-0.4-0.8,0.1-1.7l2-0.4c0.1,0.6-0.2,1.2-0.6,2.2c1,0.3,1.3-1.7,1.1-2.3c-0.4-1.3-1.6-0.1-2.1-0.7c0.2-2.4,3.1-1.8,0.1-6.2
		c-0.7-1.1-2-1.7-2.4-2.4c-1.2-1.9,0.3-0.3-1.8-0.7l-1.1-3.7c0.9-0.1,1.4,0.9,2.4,1c1.4,0.1,0.5-0.7,2.5,0c1.3,0.4,1.3-1.1,2.5-0.8
		c1.1,0.3,0.6,1.3,2,0.4c1.5-0.9,3.7,0.9,4.5,2C109.5,66.9,109.9,67.3,110.2,67.6L110.2,67.6z"/>
	<path class="st1" d="M28.3,5.3C-8.3,19.7-12.3,68.2,56.8,82.1c-10.6-4.9-51.5-38-19.1-51.6l0,0c4.4-1.6,9.1-2.7,14-3.2
		c15.1-1.4,29.4,3.4,40.2,12.4L109,19.1C86.5,0.4,55.5-5.3,28.3,5.3L28.3,5.3z"/>
	<path class="st1" d="M85.2,158.8c36.7-14.4,40.7-62.9-28.4-76.7c10.6,4.9,51.5,38,19.1,51.6l0,0c-4.4,1.6-9.1,2.7-14,3.2
		c-15.1,1.4-29.4-3.4-40.2-12.4L4.5,145.1C27.1,163.8,58.1,169.4,85.2,158.8L85.2,158.8z"/>
</g>
</svg>
